<?xml version="1.0" standalone="no"?>
<!DOCTYPE svg PUBLIC "-//W3C//DTD SVG 20010904//EN"
 "http://www.w3.org/TR/2001/REC-SVG-20010904/DTD/svg10.dtd">
<svg version="1.0" xmlns="http://www.w3.org/2000/svg"
 width="378.000000pt" height="337.000000pt" viewBox="0 0 378.000000 337.000000"
 preserveAspectRatio="xMidYMid meet">

<g transform="translate(0.000000,337.000000) scale(0.100000,-0.100000)"
fill="#000000" stroke="none">
<path d="M2345 3276 c-174 -23 -307 -55 -360 -85 -16 -10 -46 -24 -65 -32
-108 -42 -244 -178 -297 -296 -48 -108 -41 -243 18 -361 32 -65 208 -246 270
-277 19 -10 54 -32 79 -49 122 -86 277 -143 400 -147 94 -4 198 11 224 32 13
10 34 19 46 19 11 0 49 7 83 15 34 8 105 23 157 34 177 36 388 102 472 146 72
39 164 109 229 176 77 79 95 129 86 232 -13 140 -152 334 -317 441 -164 107
-237 134 -440 161 -161 21 -379 17 -585 -9z m575 -41 c187 -24 298 -65 432
-159 56 -39 139 -119 191 -185 10 -13 34 -52 54 -87 41 -75 54 -165 33 -228
-20 -62 -197 -220 -295 -264 -168 -76 -557 -169 -747 -179 -85 -5 -93 -8 -89
-39 2 -15 -67 -26 -110 -18 -124 21 -212 49 -277 87 -173 101 -223 137 -314
228 -108 106 -130 145 -149 255 -21 127 12 218 123 338 62 67 84 84 177 130
130 64 229 91 431 115 194 23 391 25 540 6z"/>
<path d="M2578 3155 c-37 -21 -48 -44 -48 -105 0 -46 4 -55 35 -82 l34 -31
-20 -28 c-24 -34 -75 -144 -99 -214 -9 -28 -23 -50 -31 -50 -8 0 -35 32 -61
70 -38 58 -46 78 -46 116 0 26 -5 56 -11 67 -14 26 -73 39 -107 23 -56 -25
-52 -102 7 -124 23 -9 29 -16 25 -32 -20 -72 -28 -241 -16 -332 15 -122 39
-175 88 -199 33 -15 55 -16 267 -6 127 6 242 15 256 20 13 5 92 15 174 22 142
12 255 33 255 48 -1 32 -31 235 -40 262 -6 19 -17 66 -25 104 l-14 68 29 28
c52 48 28 140 -39 155 -38 8 -99 -18 -110 -47 -9 -24 1 -71 19 -93 10 -12 -16
-53 -116 -183 -18 -24 -114 88 -203 236 -59 97 -62 104 -51 136 6 19 12 53 13
75 1 34 -4 47 -29 72 -37 37 -95 47 -136 24z m112 -266 c0 -5 27 -44 59 -87
33 -42 64 -88 70 -102 31 -72 126 -170 166 -170 8 0 41 37 74 83 33 45 66 90
73 100 9 12 19 16 31 11 16 -6 18 -14 12 -60 -4 -36 -2 -72 8 -106 22 -78 31
-196 16 -214 -8 -10 -37 -14 -108 -14 -53 -1 -116 -6 -141 -11 -25 -6 -61 -13
-80 -16 -19 -3 -43 -12 -52 -20 -10 -9 -25 -12 -38 -8 -19 6 -177 7 -394 1
l-60 -1 -17 105 c-18 103 -23 277 -10 335 11 51 35 42 63 -22 14 -32 37 -68
50 -81 21 -19 29 -21 55 -11 25 8 38 25 68 87 100 208 119 239 142 221 7 -6
13 -15 13 -20z"/>
<path d="M2670 2525 c-14 -16 -8 -81 9 -98 5 -5 21 -7 35 -3 50 12 46 108 -5
114 -14 2 -31 -4 -39 -13z"/>
<path d="M3104 2512 c-35 -24 -11 -82 26 -62 24 13 33 39 19 56 -13 15 -28 18
-45 6z"/>
<path d="M2381 2451 c-7 -5 -11 -19 -9 -32 4 -31 42 -33 46 -3 4 25 -19 46
-37 35z"/>
<path d="M1120 3140 c-14 -4 -53 -8 -87 -9 -82 -1 -194 -19 -267 -42 -33 -11
-70 -19 -83 -19 -12 0 -44 -9 -72 -19 -27 -11 -85 -22 -128 -25 -63 -5 -96
-14 -156 -41 -41 -19 -98 -40 -126 -46 -61 -13 -128 -59 -137 -95 -4 -14 -4
-49 -1 -77 11 -104 95 -428 134 -517 24 -55 93 -262 93 -281 0 -28 60 -100 95
-115 43 -18 115 -7 237 35 48 17 111 33 140 37 29 4 64 12 78 19 14 7 52 20
85 28 33 9 87 25 120 35 33 11 80 24 105 31 179 46 182 47 237 107 58 63 64
88 34 138 -25 42 -47 139 -70 312 -4 33 -33 137 -64 230 -30 93 -62 195 -71
227 -15 53 -45 98 -63 96 -5 -1 -19 -5 -33 -9z m-117 -223 c7 -19 -3 -31 -38
-50 -16 -8 -41 -27 -54 -41 -68 -72 9 -186 135 -202 59 -7 76 -23 53 -50 -11
-13 -30 -15 -110 -12 -85 3 -101 7 -136 31 -100 69 -112 209 -26 290 41 38
165 62 176 34z"/>
<path d="M2435 1739 c-108 -14 -239 -68 -298 -123 -35 -33 -60 -91 -51 -119
13 -40 55 -85 117 -126 99 -64 151 -82 254 -88 89 -6 93 -5 155 27 89 45 125
75 148 120 26 51 26 125 1 167 -27 44 -114 111 -159 122 -95 23 -120 26 -167
20z m158 -70 c21 -7 60 -34 87 -60 44 -42 50 -53 50 -89 0 -23 -7 -54 -15 -71
-21 -40 -84 -78 -119 -72 -25 5 -27 3 -24 -23 l3 -29 -80 1 c-98 1 -161 21
-249 77 -74 48 -117 98 -109 128 12 43 125 114 233 145 51 15 165 11 223 -7z"/>
<path d="M2365 1211 c-56 -26 -77 -52 -73 -93 3 -29 9 -36 53 -57 27 -13 67
-26 89 -29 90 -12 168 76 131 148 -8 16 -24 34 -34 40 -31 16 -122 11 -166 -9z
m154 -46 c12 -12 10 -20 -14 -55 -33 -47 -46 -48 -133 -10 l-46 21 22 22 c45
45 136 56 171 22z"/>
<path d="M2061 875 c-87 -16 -156 -55 -190 -107 -31 -48 -65 -56 -127 -29 -62
28 -119 26 -190 -5 -33 -14 -81 -35 -109 -46 -112 -47 -157 -71 -172 -94 -14
-22 -14 -26 0 -48 l16 -24 -105 -54 c-137 -69 -238 -151 -242 -197 -5 -50 20
-71 82 -71 28 0 67 4 85 10 19 5 36 9 37 7 1 -1 -20 -19 -48 -39 -100 -74
-135 -146 -83 -170 39 -18 147 14 300 88 103 49 225 94 257 94 2 0 4 -12 3
-27 0 -25 4 -28 37 -31 29 -2 62 9 144 50 120 60 197 122 214 173 6 19 15 35
18 35 4 0 25 -12 47 -27 34 -24 49 -28 105 -27 86 2 186 28 235 62 22 15 50
47 63 72 21 39 23 54 18 118 -3 40 -11 92 -17 115 -13 54 -72 134 -118 161
-44 25 -159 30 -260 11z m190 -40 c80 -12 132 -86 150 -215 11 -78 10 -88 -7
-124 -24 -51 -81 -81 -192 -102 -81 -15 -84 -15 -125 6 -23 12 -56 35 -74 52
-36 35 -69 33 -60 -3 8 -30 -26 -101 -65 -138 -32 -30 -110 -76 -192 -113 -33
-16 -37 -16 -25 -2 7 8 30 24 51 35 40 20 49 45 22 56 -9 3 -65 -10 -125 -30
-59 -21 -113 -37 -120 -37 -19 0 -179 -71 -229 -101 -60 -36 -207 -81 -217
-66 -9 14 70 83 172 151 109 72 146 90 245 115 90 23 122 43 103 62 -11 11
-175 -26 -246 -55 -192 -81 -319 -107 -334 -69 -16 43 258 213 422 262 81 24
135 54 135 76 0 21 -38 19 -102 -4 -78 -29 -132 -37 -126 -20 2 8 20 22 39 31
115 57 140 68 151 68 7 0 36 11 63 25 61 30 118 32 176 6 50 -22 158 -27 161
-8 0 7 2 17 3 22 2 6 3 18 4 27 2 31 74 68 167 88 49 10 100 16 114 14 14 -2
41 -6 61 -9z"/>
<path d="M2135 770 c-10 -11 -18 -36 -19 -57 -1 -35 3 -40 37 -57 30 -14 41
-16 50 -6 9 9 8 15 -6 24 -50 30 -50 31 -37 57 7 13 19 28 27 32 7 5 11 12 8
18 -10 15 -41 10 -60 -11z"/>
<path d="M1946 638 c-37 -52 -4 -148 50 -148 32 0 32 28 -1 40 -22 8 -25 16
-25 55 0 31 5 47 15 51 21 9 19 24 -4 24 -11 0 -27 -10 -35 -22z"/>
<path d="M2193 580 c-44 -27 -56 -51 -37 -78 8 -12 22 -22 30 -22 16 0 19 26
3 35 -13 9 28 55 49 55 15 0 12 22 -4 27 -5 2 -23 -6 -41 -17z"/>
</g>
</svg>
